<svg width="28" height="28" viewBox="0 0 28 28" fill="none" xmlns="http://www.w3.org/2000/svg">
<path d="M12.6569 23.2402C12.6569 23.2402 12.5497 24.113 12.3506 24.7715C12.1822 25.3293 11.9153 25.7602 11.8913 26.3334C11.8716 26.8059 12.2434 27.1734 13.9891 27.2062C15.4722 27.2324 15.9863 26.7665 15.9403 26.1234C15.8966 25.5262 15.6428 25.0777 15.505 24.3887C15.4066 23.8921 15.3366 23.3015 15.3366 23.3015L12.6569 23.2402Z" fill="#835D4E"/>
<path d="M14.6584 6.10938L10.8369 7.52687L8.29501 7.96437C8.29501 7.96437 7.99095 8.34938 8.38689 8.80219C8.67345 9.12813 9.1547 9.36219 9.81314 9.36875C10.5547 9.37531 10.8544 9.08437 10.9375 9.33156C11.0206 9.57875 9.99689 10.1891 9.4347 10.5194C8.87251 10.8497 7.03501 11.4184 6.95407 12.2409C6.89282 12.8731 7.52282 13.2931 7.83345 13.3916C8.22939 13.5163 8.79157 13.49 8.95564 13.5075C9.1197 13.525 9.17001 13.8378 8.93814 14.0347C8.70626 14.2338 8.08064 14.4481 7.65189 14.6122C7.22314 14.7763 5.47314 15.3559 5.24126 15.4544C5.00939 15.5528 4.74689 15.9662 4.94376 16.5766C5.14282 17.1869 5.85157 17.6484 6.4947 17.8803C7.13782 18.1122 7.31939 18.0116 7.31939 18.0116C7.31939 18.0116 7.2297 18.3616 6.90814 18.6525C6.58657 18.9434 5.56939 20.0263 5.56939 20.0263C5.56939 20.0263 3.64657 20.0766 3.47814 20.2144C3.3097 20.3522 3.20251 20.6891 3.27907 21.0106C3.35564 21.3322 3.60064 22.1438 5.13189 22.5878C6.66314 23.0319 7.68907 22.5878 7.68907 22.5878C7.68907 22.5878 7.18157 23.5634 8.34751 24.0272C9.22689 24.3772 10.5678 23.9659 10.9047 23.8741C11.2416 23.7822 12.4206 23.2922 12.4206 23.2922C12.4206 23.2922 12.7422 24.0622 14.0438 24.1191C15.4219 24.1803 16.3866 23.5066 16.3866 23.5066C16.3866 23.5066 18.2941 24.6725 19.7553 24.0578C20.8119 23.6138 20.475 22.5572 20.475 22.5572C20.475 22.5572 22.3278 22.8787 23.6753 22.3428C25.0228 21.8069 25.2372 21.0719 25.2372 20.7044C25.2372 20.3369 24.7013 20.0263 24.4563 20.0416C24.2113 20.0569 23.4916 19.9694 23.0628 19.7856C22.6341 19.6019 22.0566 19.3022 22.0566 19.3022C22.0566 19.3022 21.0547 18.9741 20.3984 18.4075C20.125 18.1734 20.1534 17.9328 20.5516 17.9175C20.9497 17.9022 22.1572 17.9131 22.8484 17.4122C23.5747 16.885 23.5747 16.4147 23.5375 16.2025C23.4828 15.8984 23.1591 15.7759 23.1591 15.7759C23.1591 15.7759 20.3853 14.9009 20.3241 14.8244C20.2628 14.7478 19.8188 14.2425 19.7728 14.1966C19.7269 14.1506 18.9459 13.8597 19.1144 13.63C19.2828 13.4003 20.1688 13.3938 20.6763 12.8644C21.2691 12.2453 21.105 11.6853 20.9059 11.4709C20.7069 11.2566 20.3481 11.145 20.3481 11.145C20.3481 11.145 19.6744 11.3441 19.4447 11.2369C19.215 11.1297 18.1213 10.0797 18.1213 10.0797C18.1213 10.0797 17.1916 9.56125 17.2025 9.40375C17.2178 9.18938 18.1563 9.41031 18.9328 9.15875C19.6306 8.93344 19.6044 8.45219 19.5606 8.27063C19.4928 7.98625 19.2413 7.86812 19.0728 7.74562C18.9022 7.62531 14.6584 6.10938 14.6584 6.10938Z" fill="#0A7C1F"/>
<path d="M13.1009 3.32324C13.1009 3.32324 12.4994 4.57449 11.4778 5.71199C9.85468 7.51887 8.2775 7.97824 8.2775 7.97824C8.2775 7.97824 8.47656 8.56012 9.53312 8.52949C10.7275 8.49449 12.2894 7.64137 12.2894 7.64137C12.2894 7.64137 12.7487 8.74387 13.3153 9.38699C13.9956 10.1592 14.7962 10.7214 15.5969 10.3057C15.8987 10.1482 15.96 9.49199 15.5969 9.0348C14.7044 7.91043 15.2797 7.99355 15.3431 8.05043C15.3431 8.05043 16.0409 8.59074 17.325 8.57543C18.6091 8.56012 19.0706 7.74855 19.0706 7.74855C19.0706 7.74855 17.4781 6.86043 16.4369 5.65074C15.3956 4.44105 14.5381 3.3998 14.5381 3.3998L13.1009 3.32324Z" fill="#02AB48"/>
<path d="M12.4425 9.90527C12.4403 9.90746 11.6988 10.3843 10.8653 10.3187C10.5044 10.2903 10.2484 10.0212 10.2484 10.0212C10.2484 10.0212 9.42157 10.5068 9.01251 10.7168C8.50719 10.9771 7.85969 11.2353 7.51844 11.4825C7.35001 11.605 7.11376 11.8653 7.11376 11.8653C7.11376 11.8653 7.23626 12.4318 8.30813 12.4318C9.38001 12.4318 10.0997 12.294 10.7581 12.4778C11.4166 12.6615 12.4425 13.6875 13.1622 13.6875C13.8819 13.6875 14.3872 12.7228 15.0763 12.7228C15.7653 12.7228 15.9491 13.075 17.0056 13.1821C18.0622 13.2893 19.7313 12.6768 20.1141 12.3093C20.6325 11.8106 20.3503 11.1456 20.3503 11.1456C20.3503 11.1456 19.6788 10.8765 19.075 10.5834C18.5522 10.3296 18.1256 10.089 18.1256 10.089C18.1256 10.089 17.8806 10.3646 17.605 10.3493C17.3294 10.334 16.9334 10.1765 16.6119 10.4215C16.2903 10.6665 16.0978 11.0515 15.4613 11.1456C13.8972 11.3753 12.4425 9.90527 12.4425 9.90527ZM5.23251 15.4637C5.23251 15.4637 5.00938 16.2075 6.03751 16.669C7.06563 17.1306 8.99719 16.7215 9.08688 16.8112C9.17657 16.9009 7.50313 17.8065 8.37813 18.5481C9.42376 19.434 12.1188 16.7937 12.2959 16.7937C12.4731 16.7937 12.5628 18.9746 13.6434 19.364C14.7241 19.7534 15.7872 18.1587 16.4434 17.964C17.0997 17.7693 17.5788 18.3534 18.4275 18.3884C19.5475 18.4343 20.0944 18.1412 20.1644 17.6796C20.2344 17.2181 19.2434 16.3868 19.4556 16.2096C19.6678 16.0325 20.0397 16.6887 21.5294 16.5815C23.0191 16.4743 23.1678 15.7765 23.1678 15.7765L19.7641 14.1993C19.7641 14.1993 19.2959 14.7571 18.5522 14.7746C17.8084 14.7921 15.9294 14.4728 15.1856 14.685C14.4419 14.8971 14.21 15.7481 12.9697 15.6956C11.7294 15.6431 10.8959 14.8096 10.045 15.2165C9.19407 15.6234 8.57063 16.144 8.09813 15.8531C7.82688 15.6846 7.85532 15.444 7.87938 15.07C7.89688 14.7856 8.00626 14.4859 8.00626 14.4859L5.23251 15.4637Z" fill="#02AB48"/>
<path d="M3.46936 20.2236C3.46936 20.2236 3.94624 21.5273 6.27155 21.5273C8.2578 21.5273 8.95561 20.4248 9.33186 20.1098C9.70592 19.7948 9.97717 19.353 10.0975 19.5476C10.2178 19.7423 8.89655 21.1686 8.35624 21.6936C8.05436 21.9867 7.6803 22.5489 8.25124 22.9098C8.82217 23.2708 10.1565 23.1045 11.2372 22.6408C12.3178 22.177 12.6328 21.2145 12.6328 21.2145C12.6328 21.2145 11.8234 20.8995 11.6725 19.9239C11.5215 18.9483 11.4778 18.5348 11.1628 18.4911C10.8478 18.4451 8.60342 20.2761 7.21436 19.6833C6.55374 19.4011 6.89717 18.6639 6.89717 18.6639C6.89717 18.6639 6.26061 19.167 5.4053 19.493C4.75124 19.7401 3.46936 20.2236 3.46936 20.2236ZM13.0703 21.2889C13.0703 21.2889 12.7903 22.1639 12.8472 22.3783C12.9544 22.7873 13.3547 23.2095 14.3609 23.133C15.3672 23.0586 15.9206 22.6823 15.9075 22.352C15.8944 22.0217 15.2469 21.197 15.5619 20.987C15.8769 20.777 16.1022 21.2561 16.4172 21.768C16.7322 22.2798 18.0972 23.9292 19.5387 23.1483C20.8578 22.433 19.0881 21.0176 19.449 20.7923C19.81 20.567 20.6653 21.3611 21.969 21.302C24.279 21.197 24.594 20.0573 24.594 20.0573C24.594 20.0573 23.7081 19.832 23.1984 19.6964C22.6887 19.5608 22.0565 19.3048 22.0565 19.3048C22.0565 19.3048 21.0219 19.832 19.5825 19.7861C18.1431 19.7401 17.2856 19.1714 16.6709 19.2764C16.0562 19.3814 15.5903 20.2498 14.8247 20.7464C13.7594 21.4376 13.0703 21.2889 13.0703 21.2889Z" fill="#02AB48"/>
<path d="M14.7438 3.83486C14.7306 3.87423 14.3763 5.14517 13.9978 5.14517C13.6172 5.14517 12.9894 3.78236 12.9894 3.78236C12.9894 3.78236 11.6616 3.74079 11.6003 3.55923C11.5216 3.32298 12.4775 2.31454 12.4775 2.31454C12.4775 2.31454 12.3069 0.925482 12.4644 0.794232C12.6416 0.645482 13.8797 1.47454 13.8797 1.47454C13.8797 1.47454 15.1397 0.754857 15.3475 0.910169C15.5575 1.06767 15.1769 2.25986 15.1769 2.25986C15.1769 2.25986 16.1853 3.08454 16.1066 3.30767C16.0278 3.53298 14.7438 3.83486 14.7438 3.83486Z" fill="#FCC11A"/>
<path d="M13.0659 1.21201C13.0112 1.25576 13.1162 1.53138 13.3875 1.85295C13.6587 2.17451 13.8491 2.44138 13.9081 2.45013C13.9672 2.4567 14.3631 1.95138 14.5009 1.79826C14.6409 1.64513 14.805 1.34107 14.7569 1.29295C14.6694 1.20545 13.8928 1.74795 13.8928 1.74795C13.8928 1.74795 13.1578 1.13982 13.0659 1.21201ZM11.76 3.40607C11.8234 3.45201 13.3722 2.87013 13.3941 2.79138C13.4181 2.69951 12.9325 2.4917 12.7859 2.44795C12.6394 2.4042 12.3747 2.6317 12.1275 2.90295C11.9153 3.13045 11.7075 3.36888 11.76 3.40607Z" fill="#FEE56B"/>
<path d="M14.3172 5.68079C13.5385 5.69173 13.1928 6.22548 13.2016 6.8686C13.2103 7.51173 13.6719 7.94704 14.3981 7.93829C15.1244 7.92954 15.5028 7.43079 15.4766 6.73298C15.4547 6.12485 15.0238 5.67204 14.3172 5.68079Z" fill="#FF5F5E"/>
<path d="M17.3184 10.0187C16.5397 10.0296 16.0869 10.6071 16.0956 11.2502C16.1044 11.8934 16.5944 12.3921 17.3731 12.3834C18.1716 12.3746 18.5697 11.8037 18.5412 11.1059C18.5194 10.4999 18.025 10.0099 17.3184 10.0187Z" fill="#FCD81E"/>
<path d="M12.0881 10.2443C11.2722 10.2552 10.8369 10.8196 10.8456 11.5043C10.8544 12.1889 11.4012 12.6746 12.1603 12.6636C12.9194 12.6549 13.3394 12.1102 13.3109 11.3686C13.2869 10.7211 12.8275 10.2355 12.0881 10.2443Z" fill="#DF0E2B"/>
<path d="M9.93343 14.3868C9.10874 14.3956 8.70187 15.0037 8.71062 15.719C8.72156 16.4343 9.22031 16.9068 10.0231 16.8959C10.8259 16.885 11.2481 16.3315 11.2197 15.555C11.1934 14.8812 10.7166 14.3781 9.93343 14.3868Z" fill="#FFD2B1"/>
<path d="M14.5338 15.6319C13.6675 15.6429 13.2847 16.2357 13.2956 16.951C13.3066 17.6663 13.8185 18.1498 14.6235 18.1388C15.4285 18.1279 15.8506 17.5744 15.8222 16.8001C15.796 16.1263 15.3191 15.6232 14.5338 15.6319Z" fill="#FCD81E"/>
<path d="M18.69 14.3956C17.8172 14.4066 17.3906 15.0125 17.3994 15.7366C17.4103 16.4606 17.9178 16.9966 18.7315 16.9878C19.5431 16.9769 20.02 16.3666 19.9894 15.5812C19.9653 14.8966 19.4841 14.3869 18.69 14.3956Z" fill="#FF5F5D"/>
<path d="M19.1384 20.5652C19.1778 19.7667 18.7053 19.3467 18.0491 19.3073C17.3928 19.268 16.8962 19.6683 16.8503 20.4098C16.8044 21.1514 17.2528 21.648 17.9659 21.672C18.5872 21.6939 19.1012 21.3286 19.1384 20.5652Z" fill="#C9C9C9"/>
<path d="M10.2922 19.381C9.48062 19.392 9.12187 19.9389 9.13062 20.5973C9.13937 21.2557 9.62062 21.702 10.3753 21.6932C11.13 21.6845 11.5259 21.1726 11.4975 20.4595C11.4756 19.8339 11.0294 19.3701 10.2922 19.381Z" fill="#FF5F5E"/>
<path d="M9.52656 20.5753C9.76281 20.7021 9.8525 20.3587 9.97062 20.2406C10.0887 20.1225 10.3687 19.9234 10.2331 19.7506C10.0975 19.5778 9.75187 19.6762 9.59 19.86C9.37125 20.105 9.33406 20.4725 9.52656 20.5753ZM17.2834 20.5403C17.5197 20.6672 17.6203 20.3215 17.7187 20.1859C17.8456 20.0131 18.1541 19.895 18.0184 19.7243C17.8828 19.5515 17.5547 19.6609 17.3928 19.8425C17.1741 20.0875 17.0909 20.4353 17.2834 20.5403ZM17.885 15.6731C18.1453 15.8065 18.2437 15.4303 18.3706 15.275C18.4844 15.1372 18.8169 14.9884 18.6659 14.8068C18.515 14.6253 18.1606 14.7215 17.9812 14.9118C17.7406 15.17 17.6728 15.5637 17.885 15.6731ZM13.7681 16.9243C14.0044 17.0512 14.0941 16.7078 14.2122 16.5896C14.3303 16.4715 14.6103 16.209 14.4747 16.0362C14.3391 15.8634 14.0044 15.9728 13.8316 16.209C13.6391 16.4737 13.5756 16.8215 13.7681 16.9243ZM9.15468 15.6818C9.39093 15.8087 9.53968 15.45 9.6425 15.3187C9.84156 15.065 10.0319 14.9293 9.89625 14.7565C9.76062 14.5837 9.3975 14.7303 9.21812 14.9643C9.02125 15.2268 8.96437 15.579 9.15468 15.6818ZM11.3181 11.495C11.5544 11.6218 11.6681 11.2959 11.7622 11.1603C11.9066 10.9525 12.1778 10.7797 12.0422 10.6068C11.9066 10.434 11.5806 10.5259 11.3816 10.7796C11.1803 11.0356 11.1256 11.39 11.3181 11.495ZM16.59 11.3834C16.8481 11.5234 16.9466 11.145 17.0756 11.0159C17.2047 10.8868 17.5131 10.6681 17.3644 10.48C17.2156 10.2918 16.8372 10.399 16.66 10.5981C16.4194 10.8671 16.3778 11.2718 16.59 11.3834ZM13.5384 6.84871C13.7747 6.97559 13.8644 6.63215 13.9825 6.51402C14.1006 6.3959 14.3806 6.19684 14.245 6.02402C14.1094 5.85121 13.8359 5.94309 13.6369 6.17715C13.4269 6.42871 13.3459 6.7459 13.5384 6.84871Z" fill="#F9FFFF"/>
<path d="M11.0491 7.05664C10.7122 7.05664 10.5591 7.20102 10.5328 7.5007C10.5066 7.79164 10.6881 7.97102 10.9594 7.9907C11.34 8.01695 11.4581 7.70195 11.4581 7.5007C11.4559 7.2732 11.2744 7.05664 11.0491 7.05664ZM12.495 8.3407C12.2106 8.16133 11.9656 8.28164 11.8475 8.4282C11.6791 8.63602 11.7053 8.9532 11.9416 9.08227C12.25 9.2507 12.4972 9.12164 12.5978 8.9707C12.7509 8.7432 12.705 8.47414 12.495 8.3407ZM13.7856 8.94664C13.4947 9.00133 13.3591 9.23539 13.4159 9.5307C13.4597 9.76258 13.7156 9.92664 13.9781 9.8632C14.35 9.7757 14.3675 9.43664 14.3063 9.24633C14.2406 9.03195 14.0088 8.90727 13.7856 8.94664ZM17.4563 7.59039C17.1916 7.38258 16.9203 7.46133 16.7825 7.63414C16.625 7.83102 16.6119 8.08695 16.8109 8.2707C17.0472 8.48727 17.3775 8.37352 17.4934 8.22477C17.6269 8.05633 17.6334 7.73039 17.4563 7.59039ZM15.9513 8.7957C15.6122 8.7957 15.4569 8.94008 15.4284 9.23758C15.4022 9.52633 15.5947 9.71445 15.8681 9.73414C16.2531 9.76039 16.3625 9.43664 16.3625 9.23758C16.3647 9.01227 16.1809 8.7957 15.9513 8.7957ZM9.84157 11.9676C9.49594 11.9676 9.33844 12.1141 9.31001 12.416C9.28376 12.7091 9.46969 12.8907 9.74751 12.9104C10.1391 12.9388 10.2594 12.6173 10.2594 12.416C10.2594 12.1863 10.0734 11.9676 9.84157 11.9676ZM11.3991 13.1598C11.0666 13.0548 10.8872 13.1554 10.7516 13.4332C10.6422 13.6585 10.7516 13.9582 11.0184 14.0479C11.4034 14.1748 11.6003 13.921 11.6616 13.7241C11.7338 13.501 11.6222 13.2298 11.3991 13.1598ZM13.4641 14.5707C13.4553 14.2207 13.2934 14.0654 12.9719 14.0457C12.6569 14.026 12.4709 14.2207 12.4578 14.5051C12.4403 14.9032 12.7838 15.017 12.9981 15.0104C13.2431 15.0016 13.4706 14.807 13.4641 14.5707ZM15.1178 13.9604C14.7569 13.9604 14.5928 14.1135 14.5622 14.4307C14.5338 14.7391 14.7284 14.9273 15.0194 14.9491C15.4284 14.9776 15.5553 14.6429 15.5553 14.4307C15.5553 14.1901 15.3606 13.9604 15.1178 13.9604ZM17.1522 13.3348C16.8153 13.3348 16.6622 13.4791 16.6359 13.7788C16.6097 14.0698 16.7913 14.2491 17.0625 14.2688C17.4431 14.2951 17.5613 13.9801 17.5613 13.7788C17.5591 13.5535 17.3775 13.3348 17.1522 13.3348ZM18.4997 12.9126C18.5675 13.2123 18.7994 13.326 19.0903 13.2516C19.3725 13.1795 19.4819 12.9498 19.4097 12.6873C19.3091 12.3198 18.97 12.3132 18.7819 12.381C18.5697 12.4554 18.4516 12.6916 18.4997 12.9126ZM21.4288 15.9948C21.1094 15.9948 20.9628 16.1348 20.9366 16.4213C20.9103 16.7013 21.0831 16.8741 21.3434 16.8916C21.7066 16.9179 21.8181 16.6138 21.8181 16.4213C21.8181 16.2048 21.6453 15.9948 21.4288 15.9948ZM20.4291 17.6879C20.4619 17.3182 20.3197 17.1366 19.9959 17.0776C19.6809 17.0207 19.4688 17.2023 19.4206 17.4976C19.3528 17.9132 19.6875 18.0729 19.9063 18.0926C20.1534 18.1145 20.4072 17.9373 20.4291 17.6879ZM18.1738 17.9154C17.8194 17.9307 17.6269 18.1735 17.6488 18.5235C17.6706 18.8648 17.9178 19.0376 18.2394 19.0091C18.69 18.9698 18.7709 18.5826 18.7338 18.3507C18.6922 18.0904 18.4428 17.9023 18.1738 17.9154ZM16.1219 18.646C15.7609 18.6001 15.5444 18.8123 15.5116 19.1579C15.4809 19.4926 15.6953 19.6938 16.0147 19.7223C16.5309 19.7704 16.6031 19.3898 16.6031 19.1579C16.6031 18.8976 16.3866 18.6788 16.1219 18.646ZM13.5559 18.926C13.2016 18.9413 13.0091 19.1841 13.0309 19.5341C13.0528 19.8754 13.3 20.0482 13.6216 20.0198C14.0722 19.9804 14.1531 19.5932 14.1159 19.3613C14.0766 19.101 13.825 18.9151 13.5559 18.926ZM11.3203 18.2391C10.9725 18.2545 10.7909 18.5301 10.8063 18.832C10.8216 19.1623 11.0688 19.3307 11.3838 19.3023C11.8256 19.2629 11.9044 18.8866 11.8694 18.6635C11.8278 18.4076 11.5828 18.226 11.3203 18.2391ZM9.22251 17.3926C8.87469 17.4079 8.68657 17.6441 8.70844 17.9832C8.73032 18.3135 8.96876 18.4798 9.28376 18.4513C9.72563 18.412 9.80438 18.0379 9.76938 17.8126C9.73001 17.561 9.48501 17.3816 9.22251 17.3926ZM7.91001 15.7323C7.61032 15.7454 7.44844 15.951 7.46813 16.2485C7.48782 16.5373 7.69344 16.6838 7.96469 16.6598C8.34532 16.627 8.41313 16.2988 8.38032 16.102C8.34751 15.881 8.13532 15.7235 7.91001 15.7323Z" fill="#F9C319"/>
</svg>
