<svg width="28" height="28" viewBox="0 0 28 28" fill="none" xmlns="http://www.w3.org/2000/svg">
<path d="M14 2C18.6945 2 22.5 5.5 22.5 11.5C22.5 16.065 17.5795 22.6565 15.226 25.548C14.549 26.35 13.4125 26.318 12.7745 25.548C10.4215 22.658 5.5 16.066 5.5 11.5C5.5 5.5 9.3055 2 14 2ZM14 7.5C13.2044 7.5 12.4413 7.81607 11.8787 8.37868C11.3161 8.94129 11 9.70435 11 10.5C11 11.2956 11.3161 12.0587 11.8787 12.6213C12.4413 13.1839 13.2044 13.5 14 13.5C14.7956 13.5 15.5587 13.1839 16.1213 12.6213C16.6839 12.0587 17 11.2956 17 10.5C17 9.70435 16.6839 8.94129 16.1213 8.37868C15.5587 7.81607 14.7956 7.5 14 7.5Z" fill="#FF0000"/>
</svg>
