<?xml version="1.0" encoding="utf-8"?><svg xmlns="http://www.w3.org/2000/svg" xmlns:xlink="http://www.w3.org/1999/xlink"><symbol viewBox="0 0 24 24" id="arrow-left" xmlns="http://www.w3.org/2000/svg"><path d="m15.586 17.43-1.061 1.06-5.779-5.777a.995.995 0 0 1 0-1.413l5.779-5.78 1.06 1.06-5.424 5.425 5.425 5.425Z"/></symbol><symbol viewBox="0 0 24 24" id="arrow-right" xmlns="http://www.w3.org/2000/svg"><path d="m8.452 6.58 1.061-1.06 5.779 5.777a.996.996 0 0 1 0 1.413l-5.779 5.78-1.06-1.06 5.424-5.425L8.452 6.58Z"/></symbol><symbol viewBox="0 0 24 24" id="arrow-up" xmlns="http://www.w3.org/2000/svg"><g clip-path="url(#ca)"><path d="m6.594 15.572-1.06-1.061 5.777-5.78a.995.995 0 0 1 1.413 0l5.78 5.78-1.06 1.06-5.425-5.424-5.425 5.425Z"/></g><defs><clipPath id="ca"><path transform="translate(6)" d="M0 0h12v24H0z"/></clipPath></defs></symbol><symbol viewBox="0 0 16 16" id="minus" xmlns="http://www.w3.org/2000/svg"><rect x="2" y="7" width="12" height="2" rx="1"/></symbol><symbol viewBox="0 0 16 16" id="plus" xmlns="http://www.w3.org/2000/svg"><path d="M2 8a1 1 0 0 1 1-1h10a1 1 0 1 1 0 2H3a1 1 0 0 1-1-1Z"/><path d="M8 2a1 1 0 0 1 1 1v10a1 1 0 1 1-2 0V3a1 1 0 0 1 1-1Z"/></symbol></svg>